
<svg width="93" height="30" viewBox="0 0 93 30" fill="none" xmlns="http://www.w3.org/2000/svg">
<path d="M1.85585 6.78953L27.2331 3.44862L32.7032 2.38765M2.77798 21.8389L14.5229 21.662L25.3893 21.4936L25.5502 21.4936V21.4936C25.6404 21.4936 25.7164 21.4227 25.7232 21.3321L26.4287 11.9364L27.2331 1.68032M3.88628 18.0026L25.7111 17.9756M3.83066 17.9756L1.8132 6.78953M8.33546 17.6219L6.82057 6.13592M14.5229 17.9894L13.0198 5.31979M21.4412 17.9486L20.241 4.53658M2.74633 11.9634L26.4372 11.8278" stroke="#B68D40" stroke-width="2" stroke-miterlimit="2" stroke-linecap="round"/>
<ellipse cx="21.5281" cy="26.4634" rx="3.21771" ry="3.53658" fill="#B68D40"/>
<ellipse cx="8.65718" cy="27.1707" rx="2.57417" ry="2.82927" fill="#B68D40"/>
<path d="M34.8081 20.8064C33.9878 20.8064 33.2521 20.6762 32.6011 20.4158C31.95 20.1489 31.3966 19.781 30.9409 19.3123C30.4917 18.8435 30.1466 18.2999 29.9058 17.6814C29.6649 17.0564 29.5444 16.3924 29.5444 15.6892V15.2986C29.5444 14.4978 29.6584 13.7654 29.8862 13.1013C30.1141 12.4373 30.4396 11.8611 30.8628 11.3728C31.2925 10.8846 31.8133 10.5102 32.4253 10.2498C33.0373 9.98286 33.7274 9.8494 34.4956 9.8494C35.2443 9.8494 35.9084 9.97309 36.4878 10.2205C37.0672 10.4679 37.5522 10.8194 37.9429 11.2752C38.34 11.7309 38.6395 12.2778 38.8413 12.9158C39.0431 13.5473 39.144 14.2504 39.144 15.0252V16.1971H30.7456V14.3221H36.3804V14.1072C36.3804 13.7166 36.3088 13.3683 36.1655 13.0623C36.0288 12.7498 35.8205 12.5024 35.5405 12.3201C35.2606 12.1378 34.9025 12.0467 34.4663 12.0467C34.0952 12.0467 33.7762 12.128 33.5093 12.2908C33.2424 12.4536 33.0243 12.6814 32.855 12.9744C32.6922 13.2674 32.5685 13.6124 32.4839 14.0096C32.4058 14.4002 32.3667 14.8299 32.3667 15.2986V15.6892C32.3667 16.1124 32.4253 16.503 32.5425 16.8611C32.6662 17.2192 32.8387 17.5284 33.0601 17.7888C33.2879 18.0493 33.5614 18.2511 33.8804 18.3943C34.2059 18.5375 34.5737 18.6092 34.9839 18.6092C35.4917 18.6092 35.9637 18.5115 36.3999 18.3162C36.8426 18.1144 37.2235 17.8116 37.5425 17.408L38.9097 18.8924C38.6883 19.2114 38.3856 19.5174 38.0015 19.8103C37.6239 20.1033 37.1681 20.3442 36.6343 20.533C36.1004 20.7153 35.4917 20.8064 34.8081 20.8064ZM54.3491 17.6912C54.3491 17.4894 54.2905 17.3071 54.1733 17.1443C54.0562 16.9816 53.8381 16.8318 53.519 16.6951C53.2065 16.5519 52.7541 16.4217 52.1616 16.3045C51.6278 16.1873 51.1297 16.0408 50.6675 15.865C50.2118 15.6827 49.8146 15.4646 49.4761 15.2107C49.144 14.9568 48.8836 14.6573 48.6948 14.3123C48.506 13.9607 48.4116 13.5603 48.4116 13.1111C48.4116 12.6684 48.506 12.2517 48.6948 11.8611C48.8901 11.4705 49.1668 11.1254 49.5249 10.826C49.8895 10.52 50.3322 10.2823 50.853 10.1131C51.3804 9.93729 51.9728 9.8494 52.6304 9.8494C53.5483 9.8494 54.3361 9.99588 54.9937 10.2888C55.6577 10.5818 56.1655 10.9855 56.5171 11.4998C56.8752 12.0076 57.0542 12.587 57.0542 13.2381H54.2417C54.2417 12.9646 54.1831 12.7205 54.0659 12.5056C53.9552 12.2843 53.7795 12.1118 53.5386 11.9881C53.3042 11.8579 52.9982 11.7928 52.6206 11.7928C52.3081 11.7928 52.0379 11.8481 51.8101 11.9588C51.5822 12.0629 51.4064 12.2062 51.2827 12.3885C51.1655 12.5642 51.1069 12.7596 51.1069 12.9744C51.1069 13.1372 51.1395 13.2836 51.2046 13.4138C51.2762 13.5375 51.3901 13.6515 51.5464 13.7556C51.7026 13.8598 51.9045 13.9575 52.1519 14.0486C52.4058 14.1332 52.7183 14.2114 53.0894 14.283C53.8511 14.4392 54.5314 14.6443 55.1304 14.8982C55.7293 15.1456 56.2046 15.4842 56.5562 15.9138C56.9077 16.337 57.0835 16.8937 57.0835 17.5838C57.0835 18.0525 56.9793 18.4822 56.771 18.8728C56.5627 19.2635 56.2632 19.6053 55.8726 19.8982C55.4819 20.1847 55.0132 20.4093 54.4663 20.5721C53.9259 20.7283 53.3172 20.8064 52.6401 20.8064C51.6571 20.8064 50.8237 20.6306 50.1401 20.2791C49.4631 19.9275 48.9487 19.4816 48.5972 18.9412C48.2521 18.3943 48.0796 17.8344 48.0796 17.2615H50.7456C50.7586 17.6456 50.8563 17.9549 51.0386 18.1892C51.2274 18.4236 51.465 18.5929 51.7515 18.6971C52.0444 18.8012 52.3602 18.8533 52.6987 18.8533C53.0633 18.8533 53.366 18.8045 53.6069 18.7068C53.8478 18.6027 54.0301 18.4659 54.1538 18.2967C54.284 18.1209 54.3491 17.9191 54.3491 17.6912ZM61.6538 5.61111V20.6111H58.8413V5.61111H61.6538ZM61.2534 14.9568H60.4819C60.4884 14.2211 60.5861 13.5441 60.7749 12.9256C60.9637 12.3006 61.2339 11.7602 61.5854 11.3045C61.937 10.8422 62.3569 10.4842 62.8452 10.2303C63.34 9.97635 63.8869 9.8494 64.4858 9.8494C65.0067 9.8494 65.4787 9.92427 65.9019 10.074C66.3315 10.2172 66.6994 10.4516 67.0054 10.7771C67.3179 11.0961 67.5588 11.5161 67.728 12.0369C67.8973 12.5577 67.9819 13.1892 67.9819 13.9314V20.6111H65.1499V13.9119C65.1499 13.4431 65.0815 13.0753 64.9448 12.8084C64.8146 12.5349 64.6226 12.3429 64.3687 12.2322C64.1213 12.115 63.8153 12.0564 63.4507 12.0564C63.047 12.0564 62.702 12.1313 62.4155 12.281C62.1356 12.4308 61.911 12.6391 61.7417 12.906C61.5724 13.1665 61.4487 13.4724 61.3706 13.824C61.2925 14.1756 61.2534 14.5532 61.2534 14.9568ZM69.6714 15.4353V15.2303C69.6714 14.4555 69.7821 13.7426 70.0034 13.0916C70.2248 12.434 70.547 11.8644 70.9702 11.3826C71.3934 10.9008 71.9142 10.5265 72.5327 10.2596C73.1512 9.98611 73.8608 9.8494 74.6616 9.8494C75.4624 9.8494 76.1753 9.98611 76.8003 10.2596C77.4253 10.5265 77.9494 10.9008 78.3726 11.3826C78.8022 11.8644 79.1278 12.434 79.3491 13.0916C79.5705 13.7426 79.6812 14.4555 79.6812 15.2303V15.4353C79.6812 16.2036 79.5705 16.9165 79.3491 17.574C79.1278 18.225 78.8022 18.7947 78.3726 19.283C77.9494 19.7648 77.4285 20.1391 76.8101 20.406C76.1916 20.673 75.4819 20.8064 74.6812 20.8064C73.8804 20.8064 73.1675 20.673 72.5425 20.406C71.924 20.1391 71.3999 19.7648 70.9702 19.283C70.547 18.7947 70.2248 18.225 70.0034 17.574C69.7821 16.9165 69.6714 16.2036 69.6714 15.4353ZM72.4839 15.2303V15.4353C72.4839 15.878 72.5229 16.2915 72.6011 16.6756C72.6792 17.0597 72.8029 17.3982 72.9722 17.6912C73.1479 17.9777 73.3758 18.2023 73.6558 18.365C73.9357 18.5278 74.2775 18.6092 74.6812 18.6092C75.0718 18.6092 75.4071 18.5278 75.687 18.365C75.967 18.2023 76.1916 17.9777 76.3608 17.6912C76.5301 17.3982 76.6538 17.0597 76.7319 16.6756C76.8166 16.2915 76.8589 15.878 76.8589 15.4353V15.2303C76.8589 14.8006 76.8166 14.3969 76.7319 14.0193C76.6538 13.6352 76.5269 13.2967 76.3511 13.0037C76.1818 12.7042 75.9572 12.4698 75.6772 12.3006C75.3973 12.1313 75.0588 12.0467 74.6616 12.0467C74.2645 12.0467 73.9259 12.1313 73.646 12.3006C73.3726 12.4698 73.1479 12.7042 72.9722 13.0037C72.8029 13.2967 72.6792 13.6352 72.6011 14.0193C72.5229 14.3969 72.4839 14.8006 72.4839 15.2303ZM84.2222 12.076V24.6736H81.4097V10.0447H84.0171L84.2222 12.076ZM90.9116 15.2107V15.4158C90.9116 16.184 90.8205 16.8969 90.6382 17.5545C90.4624 18.212 90.202 18.7849 89.8569 19.2732C89.5119 19.755 89.0822 20.1326 88.5679 20.406C88.0601 20.673 87.4741 20.8064 86.8101 20.8064C86.1655 20.8064 85.6056 20.6762 85.1304 20.4158C84.6551 20.1554 84.2547 19.7908 83.9292 19.3221C83.6102 18.8468 83.353 18.2967 83.1577 17.6717C82.9624 17.0467 82.8127 16.3761 82.7085 15.6599V15.1228C82.8127 14.3546 82.9624 13.6515 83.1577 13.0135C83.353 12.3689 83.6102 11.8123 83.9292 11.3435C84.2547 10.8683 84.6519 10.5004 85.1206 10.24C85.5959 9.9796 86.1525 9.8494 86.7905 9.8494C87.4611 9.8494 88.0503 9.97635 88.5581 10.2303C89.0724 10.4842 89.5021 10.8487 89.8472 11.324C90.1987 11.7993 90.4624 12.3657 90.6382 13.0232C90.8205 13.6808 90.9116 14.4099 90.9116 15.2107ZM88.0894 15.4158V15.2107C88.0894 14.7615 88.0503 14.3481 87.9722 13.9705C87.9006 13.5864 87.7834 13.2511 87.6206 12.9646C87.4644 12.6782 87.256 12.4568 86.9956 12.3006C86.7417 12.1378 86.4325 12.0564 86.0679 12.0564C85.6838 12.0564 85.355 12.1183 85.0815 12.242C84.8146 12.3657 84.5965 12.5447 84.4272 12.7791C84.258 13.0135 84.131 13.2934 84.0464 13.6189C83.9618 13.9444 83.9097 14.3123 83.8901 14.7224V16.0799C83.9227 16.5616 84.0138 16.9946 84.1636 17.3787C84.3133 17.7563 84.5444 18.0558 84.8569 18.2771C85.1694 18.4985 85.5796 18.6092 86.0874 18.6092C86.4585 18.6092 86.771 18.5278 87.0249 18.365C87.2788 18.1957 87.4839 17.9646 87.6401 17.6717C87.8029 17.3787 87.9168 17.0402 87.9819 16.656C88.0535 16.2719 88.0894 15.8585 88.0894 15.4158Z" fill="#122620"/>
<path d="M46.2925 13.4041V15.6111H40.7749V13.4041H46.2925Z" fill="#B68D40"/>
</svg>
